# xmcd
# 
# Track frame offsets:
#     150
#     12014
#     30185
#     44807
#     60657
#     74929
#     93116
#     111652
#     129750
#     143705
#     155854
#     172514
#     191064
#     205347
# 
# Disc length: 2923
# 
# Revision: 1
# Processed by: cddbd v1.5.2PL0 Copyright (c) Steve Scherf et al.
# Submitted via: fre:ac v1.0.31
# 
DISCID=c30b690e
DTITLE=Hank Sable and Becc Lester - Blue River
DYEAR=2001
DGENRE=Country
TTITLE0=Blue River
TTITLE1=So Much of Me
TTITLE2=Some September Morning
TTITLE3=Heaven sent
TTITLE4=I'm not Dreamin' any more
TTITLE5=You are my Heart
TTITLE6=Barcelona Rain
TTITLE7=To Have and To Hold
TTITLE8=With You in My Life
TTITLE9=Richest Man in Memphis TN.
TTITLE10=Be Your Woman
TTITLE11=Firm Foundation
TTITLE12=Valley of Tears
TTITLE13=With This Ring
EXTD=
EXTT0=
EXTT1=
EXTT2=
EXTT3=
EXTT4=
EXTT5=
EXTT6=
EXTT7=
EXTT8=
EXTT9=
EXTT10=
EXTT11=
EXTT12=
EXTT13=
PLAYORDER=
